M48
;FILE_FORMAT=2:4
INCH
;TYPE=PLATED
T01C0.018
T02C0.031
T03C0.038
%
T01
X+032500Y+028500
X+031000Y+029500
X+031500Y+030500
X+030750Y+032000
X+031500Y+033500
X+033500Y+028500
X+035000Y+029500
X+033500Y+032500
X+035250
X+034000Y+031100
X+040500Y+028500
X+039500Y+032500
X+041000Y+031000
X+043000Y+029000
Y+031000
X+050250Y+029500
X+049000Y+032500
Y+030500
X+048500Y+031000
X+032000Y+032750
X+040250Y+033000
X+045500
X+039000Y+029000
X+042000Y+032500
X+033000Y+030250
T02
X+050000Y+028000
X+047000
X+048000
X+044000
X+045000
X+041000
X+042000
X+038000
X+039000
X+035000
X+036000
X+032000
X+033000
X+050000Y+034000
X+047000
X+048000
X+044000
X+045000
X+041000
X+042000
X+038000
X+039000
X+035000
X+036000
X+032000
X+033000
X+040000Y+028000
X+043000
X+046000
X+049000
X+034000
X+037000
X+040000Y+034000
X+043000
X+046000
X+049000
X+031000
X+034000
X+037000
T03
X+031000Y+028000
T00
M30
